# xmcd
# 
# Track frame offsets:
#     150
#     29162
#     52262
#     77595
#     106737
#     134250
#     159410
#     185667
#     212065
# 
# Disc length: 3178
# 
# Revision: 6
# Processed by: cddbd v1.5.2PL0 Copyright (c) Steve Scherf et al.
# Submitted via: fre:ac v1.0.17
# 
DISCID=7c0c6809
DTITLE=Various Artist - Crystal Glory
DYEAR=2000
DGENRE=New Age
TTITLE0=Various Artist - 晨曦
TTITLE1=Various Artist - 心湖
TTITLE2=Various Artist - 寧靜
TTITLE3=Various Artist - 月夜下
TTITLE4=Various Artist - 隨想
TTITLE5=Various Artist - 無痕
TTITLE6=Various Artist - 採菊
TTITLE7=Various Artist - 明鏡台
TTITLE8=Various Artist - 沉思
EXTD=YEAR: 2000
EXTT0=
EXTT1=
EXTT2=
EXTT3=
EXTT4=
EXTT5=
EXTT6=
EXTT7=
EXTT8=
PLAYORDER=
